<?xml version="1.0" encoding="UTF-8"?>
<svg version="1.1" xmlns="http://www.w3.org/2000/svg" width="427" height="377">
<path d="M0 0 C13.20869549 10.2926815 23.01593352 22.32132711 31.33935547 36.76953125 C32.33668753 38.43779578 33.3357581 40.10502829 34.33935547 41.76953125 C38.6526501 41.1613487 41.83585447 39.58223449 45.65185547 37.51953125 C53.24655544 33.56164372 61.06046241 30.9466796 69.33935547 28.76953125 C70.03512695 28.58261719 70.73089844 28.39570312 71.44775391 28.203125 C89.01547657 23.85198626 108.48114725 26.01132697 124.12890625 35.15356445 C143.01241704 47.1759414 152.98995449 65.93364046 158.76123047 87.0390625 C164.59029486 114.56957608 156.83918358 142.22144046 142.33935547 165.76953125 C136.92534166 173.79407986 130.41356929 181.0071847 123.82373047 188.07421875 C121.8701533 190.19366567 119.98064922 192.33973814 118.10107422 194.5234375 C114.0613569 199.15643047 109.75790529 203.49803737 105.40185547 207.83203125 C104.26200195 208.97768555 104.26200195 208.97768555 103.09912109 210.14648438 C98.9350446 214.30344886 94.68513508 218.28920673 90.22631836 222.12768555 C87.24933532 224.71795737 84.39714049 227.43741061 81.52685547 230.14453125 C76.61264557 234.73832028 71.61119164 239.14031797 66.35498047 243.34375 C64.0501104 245.19779704 61.77491282 247.07331436 59.51123047 248.9765625 C39.96910095 265.36910359 19.25254459 280.2805789 -3.78564453 291.39453125 C-4.61362549 291.79631592 -5.44160645 292.19810059 -6.29467773 292.61206055 C-26.59533347 302.06155908 -45.83005303 300.90785919 -66.57128906 293.57177734 C-72.84873219 291.1614387 -78.76120048 287.97476482 -84.66064453 284.76953125 C-85.25586914 284.45113281 -85.85109375 284.13273437 -86.46435547 283.8046875 C-109.28605555 271.53468255 -129.39904854 255.09289149 -148.48876953 237.71875 C-150.40637469 235.99773386 -152.36125046 234.34665844 -154.34814453 232.70703125 C-157.50025525 230.03251307 -160.11509708 227.04196217 -162.78564453 223.89453125 C-164.77657956 221.63813822 -166.87833469 219.55441582 -169.03564453 217.45703125 C-173.99307691 212.5413281 -178.35357829 207.25416092 -182.66064453 201.76953125 C-183.4118457 200.8249707 -183.4118457 200.8249707 -184.17822266 199.86132812 C-191.80548419 190.2515293 -198.7788297 180.5467696 -204.66064453 169.76953125 C-205.00434082 169.14256348 -205.34803711 168.5155957 -205.70214844 167.86962891 C-221.69623466 138.29070174 -230.70493357 103.00456927 -221.66064453 69.76953125 C-218.9425719 60.89845903 -215.01350284 53.32871991 -209.66064453 45.76953125 C-208.57783203 44.22265625 -208.57783203 44.22265625 -207.47314453 42.64453125 C-196.47108718 30.2448184 -179.95938283 22.92359708 -163.62792969 21.60546875 C-146.77793678 20.66696833 -131.05274998 24.36832681 -116.03564453 32.08203125 C-112.84232505 33.99313805 -112.84232505 33.99313805 -109.66064453 33.76953125 C-108.00362085 31.41654661 -108.00362085 31.41654661 -106.47314453 28.39453125 C-103.07022579 22.29942996 -99.15309596 17.08978428 -94.66064453 11.76953125 C-93.95875 10.84914063 -93.95875 10.84914063 -93.24267578 9.91015625 C-70.6611658 -18.96239024 -28.38473949 -21.03191518 0 0 Z " fill="#40B267" transform="translate(246.66064453125,49.23046875)"/>
<path d="M0 0 C0.33 0 0.66 0 1 0 C1 1.65 1 3.3 1 5 C1.99 5.33 2.98 5.66 4 6 C3.25130208 7.69270833 2.50260417 9.38541667 1.75390625 11.078125 C-0.40077642 16.57089118 -0.19219581 21.92249363 -0.1875 27.75 C-0.18669434 28.77174316 -0.18588867 29.79348633 -0.18505859 30.84619141 C-0.11786207 39.25102679 0.13325483 47.77249351 2 56 C2.66 56.33 3.32 56.66 4 57 C3.9175 57.804375 3.835 58.60875 3.75 59.4375 C4.08293982 64.18189247 5.90164524 67.78455517 8 72 C8.66 72 9.32 72 10 72 C10.309375 73.093125 10.61875 74.18625 10.9375 75.3125 C12.15982124 80.12958538 12.15982124 80.12958538 15 84 C14.34 85.32 13.68 86.64 13 88 C14.32 88 15.64 88 17 88 C18 91 18 91 18 93 C18.32033957 95.00212229 18.65259077 97.00239695 19 99 C20.485 99.495 20.485 99.495 22 100 C22 101.32 22 102.64 22 104 C23.32 104 24.64 104 26 104 C26.28875 105.134375 26.5775 106.26875 26.875 107.4375 C27.24625 108.613125 27.6175 109.78875 28 111 C28.99 111.495 28.99 111.495 30 112 C30.45375 113.134375 30.9075 114.26875 31.375 115.4375 C33.15997125 119.3507062 33.47411307 119.29392568 37 121 C38.25 124.125 38.25 124.125 39 127 C40.65 127 42.3 127 44 127 C44 126.01 44 125.02 44 124 C44.99 124.495 44.99 124.495 46 125 C45.67 128.63 45.34 132.26 45 136 C47.64 136 50.28 136 53 136 C52.505 138.97 52.505 138.97 52 142 C55.50776784 143.60355101 58.14354879 144.22036864 62 144 C61.01 145.98 60.02 147.96 59 150 C60.98 150.99 60.98 150.99 63 152 C63 152.66 63 153.32 63 154 C65.16874252 153.49396008 66.99967627 153.00016187 69 152 C69.125 157.75 69.125 157.75 68 160 C68.99 160.33 69.98 160.66 71 161 C71.33 161.66 71.66 162.32 72 163 C73.98 162.67 75.96 162.34 78 162 C78 162.99 78 163.98 78 165 C78.66 165 79.32 165 80 165 C80 166.65 80 168.3 80 170 C81.1446875 170.37125 81.1446875 170.37125 82.3125 170.75 C85.28095711 172.13067773 86.14597475 173.38750987 88 176 C88.99 176.33 89.98 176.66 91 177 C91.33 177.99 91.66 178.98 92 180 C93.99665598 181.67067133 95.99651034 183.33752986 98 185 C98 185.66 98 186.32 98 187 C99.11375 187.185625 99.11375 187.185625 100.25 187.375 C104.38278207 188.31426865 107.25261432 189.72930276 110 193 C110.33 193.99 110.66 194.98 111 196 C111.99 196 112.98 196 114 196 C114 196.99 114 197.98 114 199 C114.99 198.67 115.98 198.34 117 198 C117 198.66 117 199.32 117 200 C117.99 200 118.98 200 120 200 C120 200.66 120 201.32 120 202 C120.66 202 121.32 202 122 202 C122 202.66 122 203.32 122 204 C123.36125 204.1546875 123.36125 204.1546875 124.75 204.3125 C128.07685151 205.01625705 129.40328865 205.94053928 132 208 C132.99 208 133.98 208 135 208 C135 208.66 135 209.32 135 210 C135.598125 210.12375 136.19625 210.2475 136.8125 210.375 C139 211 139 211 142 213 C142 213.66 142 214.32 142 215 C142.72703125 215.15855469 143.4540625 215.31710937 144.203125 215.48046875 C149.78337923 216.7753739 154.9452324 218.29735222 160.1875 220.625 C165.26893504 222.86189979 169.49914449 223.55638262 175 224 C175.66 224.66 176.32 225.32 177 226 C179.56958609 226.22873772 181.9929464 226.33172795 184.5625 226.3125 C185.28469727 226.30976074 186.00689453 226.30702148 186.75097656 226.30419922 C193.13510814 226.17949795 198.40802957 224.93308332 204.046875 221.8984375 C206 221 206 221 209 221 C209.33 220.34 209.66 219.68 210 219 C211.32 219 212.64 219 214 219 C214 218.34 214 217.68 214 217 C215.32 217 216.64 217 218 217 C219.0043827 216.00440199 220.00352316 215.00351079 221 214 C223.15172947 213.00225538 225.34529829 212.09228892 227.5625 211.25 C228.71878906 210.80140625 229.87507812 210.3528125 231.06640625 209.890625 C234 209 234 209 236 210 C214.58923029 222.70130406 193.41663856 233.05308973 168 227 C156.56638618 224.01469068 146.36765547 219.63286253 136 214 C135.40477539 213.68160156 134.80955078 213.36320313 134.19628906 213.03515625 C111.37458898 200.7651513 91.26159599 184.32336024 72.171875 166.94921875 C70.25426984 165.22820261 68.29939407 163.57712719 66.3125 161.9375 C63.16038928 159.26298182 60.54554745 156.27243092 57.875 153.125 C55.88406497 150.86860697 53.78230984 148.78488457 51.625 146.6875 C46.66756762 141.77179685 42.30706624 136.48462967 38 131 C37.24879883 130.05543945 37.24879883 130.05543945 36.48242188 129.09179688 C28.85516035 119.48199805 21.88181483 109.77723835 16 99 C15.65630371 98.37303223 15.31260742 97.74606445 14.95849609 97.10009766 C3.07682934 75.12654126 -4.20410275 51.75973254 -4.1875 26.6875 C-4.18814453 25.67872803 -4.18878906 24.66995605 -4.18945312 23.63061523 C-4.13933698 16.56480878 -3.66003508 9.89210995 -2 3 C-1.34 3 -0.68 3 0 3 C0 2.01 0 1.02 0 0 Z " fill="#12997B" transform="translate(26,120)"/>
<path d="M0 0 C3.397717 1.98128213 3.397717 1.98128213 7.4375 1.6875 C7.14875 2.3475 6.86 3.0075 6.5625 3.6875 C5.21209937 7.28856835 4.31972163 10.95184278 3.4375 14.6875 C2.38047292 19.16334905 1.20640431 23.43387017 -0.5625 27.6875 C-3.0243382 35.21236393 -4.96513135 42.45696939 -5.38671875 50.3828125 C-5.5625 52.6875 -5.5625 52.6875 -6.01953125 54.4921875 C-7.56224708 60.72964285 -7.71235708 67.04254768 -7.6953125 73.4296875 C-7.69674759 74.64230759 -7.69674759 74.64230759 -7.69821167 75.87942505 C-7.69888785 77.57863442 -7.69707304 79.27784647 -7.69287109 80.97705078 C-7.68752895 83.548563 -7.69282808 86.11989947 -7.69921875 88.69140625 C-7.70215159 96.75729928 -7.59918623 104.67375093 -6.5625 112.6875 C-7.5525 113.1825 -7.5525 113.1825 -8.5625 113.6875 C-11.13208212 96.27220272 -12.06307136 79.28154648 -11.5625 61.6875 C-11.5313208 60.48383789 -11.5313208 60.48383789 -11.49951172 59.25585938 C-11.22848396 50.43039264 -9.85224612 42.20583012 -7.5625 33.6875 C-7.38589844 32.98882812 -7.20929688 32.29015625 -7.02734375 31.5703125 C-6.12881451 28.17251287 -4.85497353 25.0583253 -3.42578125 21.85546875 C0.04195757 13.49016895 0.04195757 13.49016895 1.4375 4.6875 C0.633125 4.39875 -0.17125 4.11 -1 3.8125 C-3.5625 2.6875 -3.5625 2.6875 -4.5625 0.6875 C-11.41552938 -2.26063764 -18.16817133 -3.72564852 -25.5625 -4.3125 C-26.5525 -4.6425 -27.5425 -4.9725 -28.5625 -5.3125 C-30.57125442 -5.03678861 -32.57428687 -4.71014263 -34.5625 -4.3125 C-34.5625 -5.3025 -34.5625 -6.2925 -34.5625 -7.3125 C-35.29855469 -7.2403125 -36.03460938 -7.168125 -36.79296875 -7.09375 C-37.76878906 -7.0009375 -38.74460938 -6.908125 -39.75 -6.8125 C-40.71292969 -6.7196875 -41.67585938 -6.626875 -42.66796875 -6.53125 C-45.31437667 -6.33125156 -47.91010865 -6.27370817 -50.5625 -6.3125 C-50.665625 -5.673125 -50.76875 -5.03375 -50.875 -4.375 C-51.101875 -3.694375 -51.32875 -3.01375 -51.5625 -2.3125 C-52.5525 -1.9825 -53.5425 -1.6525 -54.5625 -1.3125 C-54.5625 -1.9725 -54.5625 -2.6325 -54.5625 -3.3125 C-53.9025 -3.3125 -53.2425 -3.3125 -52.5625 -3.3125 C-53.0575 -4.3025 -53.0575 -4.3025 -53.5625 -5.3125 C-58.0552751 -5.70892133 -60.64682963 -4.43348812 -64.5625 -2.3125 C-65.408125 -2.02375 -66.25375 -1.735 -67.125 -1.4375 C-69.79179686 -0.38272558 -69.79179686 -0.38272558 -72.0625 2.25 C-74.85346958 4.97119535 -75.90550176 4.95610035 -79.5625 5.6875 C-82.15256431 7.91615999 -84.12544663 9.78768425 -85.625 12.875 C-86.5625 14.6875 -86.5625 14.6875 -88.625 15.5625 C-89.264375 15.93375 -89.90375 16.305 -90.5625 16.6875 C-91.37834568 19.74658413 -91.37834568 19.74658413 -91.5625 22.6875 C-92.5525 22.3575 -93.5425 22.0275 -94.5625 21.6875 C-94.85125 22.55375 -95.14 23.42 -95.4375 24.3125 C-95.80875 25.42625 -96.18 26.54 -96.5625 27.6875 C-96.995625 29.3271875 -96.995625 29.3271875 -97.4375 31 C-97.80875 31.886875 -98.18 32.77375 -98.5625 33.6875 C-100.6328125 34.35546875 -100.6328125 34.35546875 -102.5625 34.6875 C-100.96689513 25.84329015 -98.18937279 19.66966258 -92.5625 12.6875 C-91.63050781 11.44613281 -91.63050781 11.44613281 -90.6796875 10.1796875 C-68.17204165 -16.31455245 -28.33032972 -14.74013465 0 0 Z " fill="#23CF89" transform="translate(130.5625,81.3125)"/>
<path d="M0 0 C13.23172148 10.95921803 21.4787481 23.71444692 27 40 C27.34603271 40.89162842 27.69206543 41.78325684 28.04858398 42.7019043 C29.12886532 46.44671327 29.27078889 49.88360346 29.23046875 53.7421875 C29.23001053 54.46938995 29.22955231 55.19659241 29.2290802 55.9458313 C29.22607339 57.47708782 29.21823448 59.00834171 29.20581055 60.53955078 C29.18760886 62.8611152 29.18530089 65.182278 29.18554688 67.50390625 C29.1806282 69.00000339 29.17479837 70.49609786 29.16796875 71.9921875 C29.16685593 72.67578339 29.1657431 73.35937927 29.16459656 74.06369019 C29.11896092 78.78998656 28.65345754 83.32834891 28 88 C27.34 88 26.68 88 26 88 C26 89.98 26 91.96 26 94 C25.67 94 25.34 94 25 94 C24.67 92.02 24.34 90.04 24 88 C24.99 87.67 25.98 87.34 27 87 C26.87431641 85.53626953 26.87431641 85.53626953 26.74609375 84.04296875 C26.59333984 82.13451172 26.59333984 82.13451172 26.4375 80.1875 C26.28087891 78.29064453 26.28087891 78.29064453 26.12109375 76.35546875 C26 73 26 73 27 70 C27.40628612 62.49565637 26.86580681 55.28487806 25 48 C24.33333333 45.33333333 23.66666667 42.66666667 23 40 C21.68 40 20.36 40 19 40 C19.57584432 37.61435923 20.22227595 35.33317216 21 33 C19.515 32.505 19.515 32.505 18 32 C18.33 30.68 18.66 29.36 19 28 C18.34 28 17.68 28 17 28 C16.67 27.01 16.34 26.02 16 25 C15.38125 24.855625 14.7625 24.71125 14.125 24.5625 C12 24 12 24 10.25 22.1875 C9 20 9 20 9 16 C8.08598588 14.06903399 8.08598588 14.06903399 6.75 12.3125 C6.33234375 11.71050781 5.9146875 11.10851562 5.484375 10.48828125 C3.71985758 8.71912036 2.43438204 8.39012533 0 8 C0 7.01 0 6.02 0 5 C-0.99 5 -1.98 5 -3 5 C-3.495 3.02 -3.495 3.02 -4 1 C-8.42605006 -0.44524884 -8.42605006 -0.44524884 -13 -1 C-13 -1.66 -13 -2.32 -13 -3 C-13.99 -3.12375 -13.99 -3.12375 -15 -3.25 C-18 -4 -18 -4 -21.36328125 -6.0234375 C-27.08483846 -8.93328045 -32.90456477 -8.50875436 -39.1875 -8.375 C-40.34958984 -8.37371094 -41.51167969 -8.37242188 -42.70898438 -8.37109375 C-48.0508938 -8.31580084 -52.05765987 -8.10412824 -57 -6 C-58.66666667 -6 -60.33333333 -6 -62 -6 C-62.66 -5.34 -63.32 -4.68 -64 -4 C-67.25076825 -2.91787095 -70.53593093 -2.01763551 -73.8359375 -1.09765625 C-76.81427956 -0.06442894 -78.5611077 1.08140472 -81 3 C-83.75 3.1875 -83.75 3.1875 -86 3 C-86 2.34 -86 1.68 -86 1 C-85.01 0.67 -84.02 0.34 -83 0 C-82.39285156 -0.680625 -82.39285156 -0.680625 -81.7734375 -1.375 C-61.81003271 -19.66745902 -19.77032485 -14.9004085 0 0 Z " fill="#A5CF5E" transform="translate(376,88)"/>
<path d="M0 0 C0.99 0 1.98 0 3 0 C3 0.99 3 1.98 3 3 C3.66 3 4.32 3 5 3 C5 4.65 5 6.3 5 8 C5.763125 8.2475 6.52625 8.495 7.3125 8.75 C10.28095711 10.13067773 11.14597475 11.38750987 13 14 C13.99 14.33 14.98 14.66 16 15 C16.33 15.99 16.66 16.98 17 18 C18.99665598 19.67067133 20.99651034 21.33752986 23 23 C23 23.66 23 24.32 23 25 C23.7425 25.12375 24.485 25.2475 25.25 25.375 C29.38278207 26.31426865 32.25261432 27.72930276 35 31 C35.495 32.485 35.495 32.485 36 34 C36.99 34 37.98 34 39 34 C39 34.99 39 35.98 39 37 C39.99 36.67 40.98 36.34 42 36 C42 36.66 42 37.32 42 38 C42.99 38 43.98 38 45 38 C45 38.66 45 39.32 45 40 C45.66 40 46.32 40 47 40 C47 40.66 47 41.32 47 42 C47.9075 42.103125 48.815 42.20625 49.75 42.3125 C53.07685151 43.01625705 54.40328865 43.94053928 57 46 C57.99 46 58.98 46 60 46 C60 46.66 60 47.32 60 48 C60.598125 48.12375 61.19625 48.2475 61.8125 48.375 C64 49 64 49 67 51 C67 51.66 67 52.32 67 53 C67.72703125 53.15855469 68.4540625 53.31710937 69.203125 53.48046875 C74.78337923 54.7753739 79.9452324 56.29735222 85.1875 58.625 C90.26893504 60.86189979 94.49914449 61.55638262 100 62 C100.66 62.66 101.32 63.32 102 64 C104.56958609 64.22873772 106.9929464 64.33172795 109.5625 64.3125 C110.28469727 64.30976074 111.00689453 64.30702148 111.75097656 64.30419922 C118.13510814 64.17949795 123.40802957 62.93308332 129.046875 59.8984375 C131 59 131 59 134 59 C134.33 58.34 134.66 57.68 135 57 C136.32 57 137.64 57 139 57 C139 56.34 139 55.68 139 55 C140.32 55 141.64 55 143 55 C144.0043827 54.00440199 145.00352316 53.00351079 146 52 C148.15172947 51.00225538 150.34529829 50.09228892 152.5625 49.25 C153.71878906 48.80140625 154.87507812 48.3528125 156.06640625 47.890625 C159 47 159 47 161 48 C139.58923029 60.70130406 118.41663856 71.05308973 93 65 C81.56638618 62.01469068 71.36765547 57.63286253 61 52 C60.40477539 51.68160156 59.80955078 51.36320312 59.19628906 51.03515625 C39.51274589 40.45237007 21.74143336 26.71502133 5 12 C4.48002441 11.54463867 3.96004883 11.08927734 3.42431641 10.62011719 C-4.79935213 3.40129573 -4.79935213 3.40129573 -6 1 C-4.7934375 1.0309375 -4.7934375 1.0309375 -3.5625 1.0625 C-1.06645115 1.29633621 -1.06645115 1.29633621 0 0 Z " fill="#0F6A58" transform="translate(101,282)"/>
<path d="M0 0 C0.99 0 1.98 0 3 0 C1.33444079 4.33256224 -1.87436479 7.1355245 -5.125 10.3125 C-5.71611572 10.89644531 -6.30723145 11.48039062 -6.91625977 12.08203125 C-10.43833 15.53899406 -14.02449964 18.87758198 -17.7890625 22.0703125 C-20.24139529 24.21068776 -22.60986657 26.42749238 -24.98193359 28.65600586 C-30.49789684 33.83577343 -36.07128869 38.84547867 -41.984375 43.57421875 C-44.28924507 45.42826579 -46.56444265 47.30378311 -48.828125 49.20703125 C-58.88086594 57.63676548 -69.2169512 65.52604898 -80 73 C-80.58104492 73.40428223 -81.16208984 73.80856445 -81.76074219 74.22509766 C-86.89562184 77.76332628 -90.72144867 80.23786371 -97 81 C-97.66 80.01 -98.32 79.02 -99 78 C-97.515 77.01 -97.515 77.01 -96 76 C-96 76.66 -96 77.32 -96 78 C-94.68 78 -93.36 78 -92 78 C-91.505 77.01 -91.505 77.01 -91 76 C-90.34 76.33 -89.68 76.66 -89 77 C-88.67 76.01 -88.34 75.02 -88 74 C-86.515 73.505 -86.515 73.505 -85 73 C-84.505 72.01 -84.505 72.01 -84 71 C-82.24317275 69.97784597 -80.48399924 68.95804552 -78.69140625 68 C-76.8257777 66.99165437 -76.8257777 66.99165437 -75 65 C-75.66 64.34 -76.32 63.68 -77 63 C-75.02 63 -73.04 63 -71 63 C-71 62.34 -71 61.68 -71 61 C-65.58823529 57 -65.58823529 57 -63 57 C-63 56.34 -63 55.68 -63 55 C-60.525 54.505 -60.525 54.505 -58 54 C-57.67 52.35 -57.34 50.7 -57 49 C-55.02 49 -53.04 49 -51 49 C-51 46.36 -51 43.72 -51 41 C-49.68 41.33 -48.36 41.66 -47 42 C-46.505 41.01 -46.505 41.01 -46 40 C-45.030625 39.71125 -44.06125 39.4225 -43.0625 39.125 C-39.46365526 37.8029754 -39.5611998 37.22647958 -38 34 C-35.375 33.25 -35.375 33.25 -33 33 C-32.9071875 32.1646875 -32.9071875 32.1646875 -32.8125 31.3125 C-31.64834483 27.99913528 -29.60541556 26.29524704 -27 24 C-26.01 23.67 -25.02 23.34 -24 23 C-23.34 23.33 -22.68 23.66 -22 24 C-22.0825 23.2575 -22.165 22.515 -22.25 21.75 C-21.92614302 18.18757321 -20.50327173 17.42504449 -18 15 C-18 13.68 -18 12.36 -18 11 C-16 8.75 -16 8.75 -14 7 C-13.01 7.33 -12.02 7.66 -11 8 C-11 8.66 -11 9.32 -11 10 C-10.34 10 -9.68 10 -9 10 C-9 8.68 -9 7.36 -9 6 C-6 5 -3 4 0 3 C0 2.01 0 1.02 0 0 Z " fill="#5FA854" transform="translate(355,249)"/>
<path d="M0 0 C0.33 0 0.66 0 1 0 C4.95742199 28.34024782 -1.92004148 56.60409088 -18.7421875 79.93359375 C-23.6770384 86.45246007 -29.1453604 92.53344036 -34.70703125 98.51953125 C-37.39469338 101.42696814 -39.97011469 104.41922645 -42.52734375 107.44140625 C-44 109 -44 109 -47 111 C-47.99 110.67 -48.98 110.34 -50 110 C-50 110.99 -50 111.98 -50 113 C-51.98 113.99 -51.98 113.99 -54 115 C-54 114.01 -54 113.02 -54 112 C-54.66 112 -55.32 112 -56 112 C-56 111.34 -56 110.68 -56 110 C-54.35 110 -52.7 110 -51 110 C-50.95359375 108.62714844 -50.95359375 108.62714844 -50.90625 107.2265625 C-50 104 -50 104 -47.09375 102.0234375 C-45.9078125 101.47945313 -44.721875 100.93546875 -43.5 100.375 C-38.84786448 98.54735825 -38.84786448 98.54735825 -36.09375 94.7890625 C-36.04734375 93.90347656 -36.04734375 93.90347656 -36 93 C-35.01 93 -34.02 93 -33 93 C-32.731875 92.443125 -32.46375 91.88625 -32.1875 91.3125 C-31 89 -31 89 -29.4375 86.5 C-27.91567808 84.1836595 -27.91567808 84.1836595 -27.65625 82.0234375 C-26.77116818 79.29443523 -25.44984159 78.65324398 -23.0625 77.125 C-19.28464299 74.44480911 -17.96717109 72.64242125 -17 68 C-16.33333333 66 -15.66666667 64 -15 62 C-14.34 62 -13.68 62 -13 62 C-13 60.35 -13 58.7 -13 57 C-12.34 56.67 -11.68 56.34 -11 56 C-10.505 55.154375 -10.01 54.30875 -9.5 53.4375 C-9.005 52.633125 -8.51 51.82875 -8 51 C-7.34 51 -6.68 51 -6 51 C-6.04125 50.05125 -6.0825 49.1025 -6.125 48.125 C-6 45 -6 45 -4 43 C-3.60235737 41.01178687 -3.26224651 39.01055661 -3 37 C-2.34 37 -1.68 37 -1 37 C-0.67 24.79 -0.34 12.58 0 0 Z " fill="#79AD5B" transform="translate(405,139)"/>
<path d="M0 0 C0.495 0.99 0.495 0.99 1 2 C2.89533342 2.46523063 2.89533342 2.46523063 5.0625 2.625 C6.361875 2.74875 7.66125 2.8725 9 3 C9 2.34 9 1.68 9 1 C10.32 0.67 11.64 0.34 13 0 C10.26702789 3.84640518 8.37928526 5.39782247 4 7 C2.30782479 8.3008069 0.64422815 9.63909246 -1 11 C-2.66539239 12.3557335 -4.33205859 13.70990376 -6 15.0625 C-6.825 15.73410156 -7.65 16.40570313 -8.5 17.09765625 C-11 19 -11 19 -13.44921875 20.359375 C-16.80822521 22.51983857 -19.17844114 25.21258796 -21.8125 28.1875 C-22.86702537 29.35809153 -23.92301706 30.52736378 -24.98046875 31.6953125 C-25.49270996 32.2615332 -26.00495117 32.82775391 -26.53271484 33.41113281 C-29.07044039 36.15913911 -31.76186124 38.74488544 -34.4765625 41.31640625 C-36.11274235 43.12459475 -36.9369292 44.81322698 -38 47 C-39.2443121 48.76895584 -40.51801619 50.51742128 -41.8125 52.25 C-45.10677453 56.72037254 -48.13067184 61.24767523 -51 66 C-52 63 -52 63 -51.1875 60.375 C-50 58 -50 58 -48 57 C-46.86649466 54.98330173 -46.86649466 54.98330173 -46 53 C-45.34 53 -44.68 53 -44 53 C-44.185625 52.05125 -44.37125 51.1025 -44.5625 50.125 C-44.59421542 44.89195499 -40.81730408 42.03586905 -37.38671875 38.4921875 C-35.29480448 36.30783185 -33.47398099 34.12152294 -31.6875 31.6875 C-31.21441406 31.04296875 -30.74132812 30.3984375 -30.25390625 29.734375 C-29.63322266 28.87585938 -29.63322266 28.87585938 -29 28 C-23.92399993 21.06279991 -17.13632832 15.70997669 -10 11 C-9.34 11 -8.68 11 -8 11 C-8 10.34 -8 9.68 -8 9 C-4.53846154 6 -4.53846154 6 -2 6 C-2 5.34 -2 4.68 -2 4 C-1.34 4 -0.68 4 0 4 C0 2.68 0 1.36 0 0 Z " fill="#45BE5F" transform="translate(276,91)"/>
<path d="M0 0 C-21.40169491 12.69592071 -42.59208741 23.06756122 -68 17 C-78.70040511 14.15839864 -88.26244871 10.27957859 -98 5 C-94.76091757 3.38045878 -91.77187044 5.11837337 -88.5 6.1875 C-87.77675537 6.41727539 -87.05351074 6.64705078 -86.30834961 6.88378906 C-82.31088916 8.17418482 -78.4266763 9.5956686 -74.5625 11.25 C-70.62352091 12.91623481 -67.0755184 13.52863665 -62.8125 13.7265625 C-61 14 -61 14 -59 16 C-56.43041391 16.22873772 -54.0070536 16.33172795 -51.4375 16.3125 C-50.71530273 16.30976074 -49.99310547 16.30702148 -49.24902344 16.30419922 C-42.86489186 16.17949795 -37.59197043 14.93308332 -31.953125 11.8984375 C-30 11 -30 11 -27 11 C-26.67 10.34 -26.34 9.68 -26 9 C-24.68 9 -23.36 9 -22 9 C-22 8.34 -22 7.68 -22 7 C-20.68 7 -19.36 7 -18 7 C-16.9956173 6.00440199 -15.99647684 5.00351079 -15 4 C-12.84827053 3.00225538 -10.65470171 2.09228892 -8.4375 1.25 C-7.28121094 0.80140625 -6.12492187 0.3528125 -4.93359375 -0.109375 C-2 -1 -2 -1 0 0 Z " fill="#0F5547" transform="translate(262,330)"/>
<path d="M0 0 C0.33 0 0.66 0 1 0 C1 1.65 1 3.3 1 5 C1.99 5.33 2.98 5.66 4 6 C3.25130208 7.69270833 2.50260417 9.38541667 1.75390625 11.078125 C-0.40077642 16.57089118 -0.19219581 21.92249363 -0.1875 27.75 C-0.18669434 28.77174316 -0.18588867 29.79348633 -0.18505859 30.84619141 C-0.11786207 39.25102679 0.13325483 47.77249351 2 56 C2.66 56.33 3.32 56.66 4 57 C3.9175 57.804375 3.835 58.60875 3.75 59.4375 C4.08293982 64.18189247 5.90164524 67.78455517 8 72 C8.66 72 9.32 72 10 72 C10.309375 73.093125 10.61875 74.18625 10.9375 75.3125 C12.15982124 80.12958538 12.15982124 80.12958538 15 84 C14.01 84.99 13.02 85.98 12 87 C12 86.01 12 85.02 12 84 C11.34 84 10.68 84 10 84 C9.67 81.36 9.34 78.72 9 76 C8.01 75.67 7.02 75.34 6 75 C5.505 72.525 5.505 72.525 5 70 C4.34 70 3.68 70 3 70 C-3.44096174 48.31706771 -7.40260428 25.43045529 -2 3 C-1.34 3 -0.68 3 0 3 C0 2.01 0 1.02 0 0 Z " fill="#18A385" transform="translate(26,120)"/>
<path d="M0 0 C-0.99 0 -1.98 0 -3 0 C-3.33 0.99 -3.66 1.98 -4 3 C-6.44932484 4.15662562 -8.92598096 4.97594381 -11.5 5.8125 C-14.2168307 6.92582583 -14.2168307 6.92582583 -16.5 9.5625 C-19.29096958 12.28369535 -20.34300176 12.26860035 -24 13 C-26.59006431 15.22865999 -28.56294663 17.10018425 -30.0625 20.1875 C-31 22 -31 22 -33.0625 22.875 C-33.701875 23.24625 -34.34125 23.6175 -35 24 C-35.81584568 27.05908413 -35.81584568 27.05908413 -36 30 C-36.99 29.67 -37.98 29.34 -39 29 C-39.28875 29.86625 -39.5775 30.7325 -39.875 31.625 C-40.24625 32.73875 -40.6175 33.8525 -41 35 C-41.433125 36.6396875 -41.433125 36.6396875 -41.875 38.3125 C-42.24625 39.199375 -42.6175 40.08625 -43 41 C-45.0703125 41.66796875 -45.0703125 41.66796875 -47 42 C-45.40439513 33.15579015 -42.62687279 26.98216258 -37 20 C-36.06800781 18.75863281 -36.06800781 18.75863281 -35.1171875 17.4921875 C-28.2917965 9.45787116 -11.22091152 -3.60672156 0 0 Z " fill="#1ECFA6" transform="translate(75,74)"/>
<path d="M0 0 C-0.66 0.33 -1.32 0.66 -2 1 C-4.37015315 0.1339825 -6.61809862 -0.9298315 -8.90625 -1.9921875 C-16.84435301 -4.57808469 -25.54471845 -4.18212083 -33.8125 -4.1875 C-35.3274707 -4.20586914 -35.3274707 -4.20586914 -36.87304688 -4.22460938 C-37.84951172 -4.22654297 -38.82597656 -4.22847656 -39.83203125 -4.23046875 C-40.70577393 -4.23457764 -41.5795166 -4.23868652 -42.47973633 -4.24291992 C-45.29035239 -3.97201389 -47.40940249 -3.08883312 -50 -2 C-51.66666667 -2 -53.33333333 -2 -55 -2 C-55.66 -1.34 -56.32 -0.68 -57 0 C-60.25076825 1.08212905 -63.53593093 1.98236449 -66.8359375 2.90234375 C-69.81427956 3.93557106 -71.5611077 5.08140472 -74 7 C-76.75 7.1875 -76.75 7.1875 -79 7 C-79 6.34 -79 5.68 -79 5 C-78.01 4.67 -77.02 4.34 -76 4 C-75.39285156 3.319375 -75.39285156 3.319375 -74.7734375 2.625 C-57.71140536 -13.00893254 -18.30034958 -12.49779972 0 0 Z " fill="#84AE51" transform="translate(369,84)"/>
<path d="M0 0 C-0.66 0 -1.32 0 -2 0 C-2.26280762 0.58426758 -2.52561523 1.16853516 -2.79638672 1.77050781 C-4.05820528 4.10781555 -5.43361361 5.74817435 -7.2578125 7.671875 C-7.88300781 8.33574219 -8.50820312 8.99960937 -9.15234375 9.68359375 C-9.80332031 10.36550781 -10.45429688 11.04742187 -11.125 11.75 C-11.78371094 12.44738281 -12.44242188 13.14476563 -13.12109375 13.86328125 C-14.74327774 15.57950489 -16.36965379 17.29153435 -18 19 C-17.67 19.99 -17.34 20.98 -17 22 C-17.66 22.66 -18.32 23.32 -19 24 C-18.505 24.45375 -18.01 24.9075 -17.5 25.375 C-16 27 -16 27 -16 29 C-16.99 29.33 -17.98 29.66 -19 30 C-19.66 29.34 -20.32 28.68 -21 28 C-23.06599083 27.93245166 -23.06599083 27.93245166 -25 29 C-26.03973184 31.13326836 -26.03973184 31.13326836 -27 34 C-27.78588708 35.55540151 -28.60092708 37.09626258 -29.4375 38.625 C-29.84871094 39.38039062 -30.25992188 40.13578125 -30.68359375 40.9140625 C-31.94750249 42.91681404 -33.25942253 44.40658506 -35 46 C-32.3872864 31.45818612 -24.70972699 20.27180568 -15.4375 9 C-14.78575806 8.19030762 -14.78575806 8.19030762 -14.12084961 7.36425781 C-10.53741106 3.12680006 -5.79895327 -1.93298442 0 0 Z M-21 25 C-20 27 -20 27 -20 27 Z " fill="#4BD874" transform="translate(168,51)"/>
<path d="M0 0 C0 0.99 0 1.98 0 3 C1.32 3.33 2.64 3.66 4 4 C4 4.66 4 5.32 4 6 C-0.3315234 4.70054298 -4.12687939 2.97436756 -8.0703125 0.8046875 C-10.26685334 -0.25658713 -10.26685334 -0.25658713 -14 0 C-14.495 -0.99 -14.495 -0.99 -15 -2 C-17.53411107 -2.65069047 -19.99217636 -3.17317629 -22.5625 -3.625 C-23.25408203 -3.7590625 -23.94566406 -3.893125 -24.65820312 -4.03125 C-31.26953861 -5.2389124 -37.61935057 -5.51529746 -44.25 -4.125 C-45.46429688 -3.88136719 -45.46429688 -3.88136719 -46.703125 -3.6328125 C-49.02596952 -3.0749599 -49.02596952 -3.0749599 -51.109375 -1.9296875 C-53 -1 -53 -1 -56 -1 C-56.33 -0.01 -56.66 0.98 -57 2 C-58.65 1.67 -60.3 1.34 -62 1 C-61.34 0.67 -60.68 0.34 -60 0 C-60 -0.66 -60 -1.32 -60 -2 C-59.195625 -2.28875 -58.39125 -2.5775 -57.5625 -2.875 C-54.8673532 -3.73262568 -54.8673532 -3.73262568 -54 -6 C-35.24579495 -11.75833338 -17.24810067 -8.95574458 0 0 Z " fill="#4CC770" transform="translate(238,44)"/>
<path d="M0 0 C0.99 0.33 1.98 0.66 3 1 C-9.25602977 12.55768049 -23.17385637 22.41982048 -37 32 C-37.80308594 32.55816406 -38.60617187 33.11632812 -39.43359375 33.69140625 C-43.27588765 36.24082999 -46.28394926 37.64629619 -51 38 C-51.66 37.01 -52.32 36.02 -53 35 C-52.01 34.34 -51.02 33.68 -50 33 C-50 33.66 -50 34.32 -50 35 C-48.68 35 -47.36 35 -46 35 C-45.67 34.34 -45.34 33.68 -45 33 C-44.34 33.33 -43.68 33.66 -43 34 C-42.67 33.01 -42.34 32.02 -42 31 C-41.01 30.67 -40.02 30.34 -39 30 C-38.67 29.34 -38.34 28.68 -38 28 C-36.24317275 26.97784597 -34.48399924 25.95804552 -32.69140625 25 C-30.8257777 23.99165437 -30.8257777 23.99165437 -29 22 C-29.66 21.34 -30.32 20.68 -31 20 C-29.02 20 -27.04 20 -25 20 C-25 19.34 -25 18.68 -25 18 C-19.58823529 14 -19.58823529 14 -17 14 C-17 13.34 -17 12.68 -17 12 C-15.35 11.67 -13.7 11.34 -12 11 C-11.67 9.35 -11.34 7.7 -11 6 C-9.02 6 -7.04 6 -5 6 C-4.67 5.01 -4.34 4.02 -4 3 C-2.125 1.25 -2.125 1.25 0 0 Z " fill="#317651" transform="translate(309,292)"/>
<path d="M0 0 C0.33 0 0.66 0 1 0 C1.06058594 1.07636719 1.12117188 2.15273437 1.18359375 3.26171875 C2.06992948 20.18031685 2.06992948 20.18031685 4 37 C4.15052107 38.6037336 4.29592225 40.20795215 4.4375 41.8125 C4.83993866 46.00037732 5.58222272 50.01796392 6.45703125 54.12890625 C7.57539599 60.04256153 8.25179025 66.03024137 9 72 C9.66 72 10.32 72 11 72 C11 74.97 11 77.94 11 81 C11.66 81 12.32 81 13 81 C12.67 82.32 12.34 83.64 12 85 C12.66 85 13.32 85 14 85 C14.33 86.65 14.66 88.3 15 90 C14.01 90.495 14.01 90.495 13 91 C10.33961901 85.4373852 9.03767051 80.06732052 8 74 C7.67 74 7.34 74 7 74 C5.31482257 68.15805157 4.68265341 62.71459086 4.44140625 56.63671875 C4.26285444 53.96053031 4.26285444 53.96053031 2.47265625 52.53125 C1 51 1 51 0.7421875 48.14453125 C0.78601563 47.04496094 0.82984375 45.94539063 0.875 44.8125 C1.00063525 41.2821495 1.00654845 38.04636301 0.51171875 34.54296875 C-0.40436746 27.91251554 -0.10406923 21.17931216 -0.0625 14.5 C-0.05747533 13.09114742 -0.05291413 11.68229311 -0.04882812 10.2734375 C-0.0371003 6.84891362 -0.02068691 3.42447953 0 0 Z " fill="#1DA36B" transform="translate(122,154)"/>
<path d="M0 0 C0.66 0.66 1.32 1.32 2 2 C1.67 2.99 1.34 3.98 1 5 C0.80112075 6.80924876 0.63790399 8.62258498 0.5 10.4375 C0.10889292 15.5707804 0.10889292 15.5707804 -0.46875 17.84765625 C-2.00442781 24.06940972 -2.1498121 30.37190627 -2.1328125 36.7421875 C-2.13424759 37.95480759 -2.13424759 37.95480759 -2.13571167 39.19192505 C-2.13638785 40.89113442 -2.13457304 42.59034647 -2.13037109 44.28955078 C-2.12502895 46.861063 -2.13032808 49.43239947 -2.13671875 52.00390625 C-2.13965159 60.06979928 -2.03668623 67.98625093 -1 76 C-1.99 76.495 -1.99 76.495 -3 77 C-5.56994632 59.5822344 -6.40241668 42.59695893 -6 25 C-5.34 25 -4.68 25 -4 25 C-3.96261719 23.94941406 -3.92523438 22.89882812 -3.88671875 21.81640625 C-3.54506241 14.03886347 -2.99337752 7.28822353 0 0 Z " fill="#17B581" transform="translate(125,118)"/>
<path d="M0 0 C0.33 0 0.66 0 1 0 C4.26583005 23.3875571 0.48551359 46.22832648 -11 67 C-11.99 67 -12.98 67 -14 67 C-14.495 64.525 -14.495 64.525 -15 62 C-14.34 62 -13.68 62 -13 62 C-13 60.35 -13 58.7 -13 57 C-12.01 56.505 -12.01 56.505 -11 56 C-10.2575 54.7315625 -10.2575 54.7315625 -9.5 53.4375 C-9.005 52.633125 -8.51 51.82875 -8 51 C-7.34 51 -6.68 51 -6 51 C-6.04125 50.05125 -6.0825 49.1025 -6.125 48.125 C-6 45 -6 45 -4 43 C-3.60235737 41.01178687 -3.26224651 39.01055661 -3 37 C-2.34 37 -1.68 37 -1 37 C-0.67 24.79 -0.34 12.58 0 0 Z " fill="#78A750" transform="translate(405,139)"/>
<path d="M0 0 C0 0.99 0 1.98 0 3 C-1.77119803 2.85866501 -3.54195287 2.71176792 -5.3125 2.5625 C-6.29863281 2.48128906 -7.28476563 2.40007812 -8.30078125 2.31640625 C-11 2 -11 2 -14 1 C-16.00875442 1.27571139 -18.01178687 1.60235737 -20 2 C-20 1.01 -20 0.02 -20 -1 C-20.73605469 -0.9278125 -21.47210938 -0.855625 -22.23046875 -0.78125 C-23.20628906 -0.6884375 -24.18210937 -0.595625 -25.1875 -0.5 C-26.15042969 -0.4071875 -27.11335938 -0.314375 -28.10546875 -0.21875 C-30.75187667 -0.01875156 -33.34760865 0.03879183 -36 0 C-36.103125 0.639375 -36.20625 1.27875 -36.3125 1.9375 C-36.539375 2.618125 -36.76625 3.29875 -37 4 C-37.99 4.33 -38.98 4.66 -40 5 C-40 4.34 -40 3.68 -40 3 C-39.34 3 -38.68 3 -38 3 C-38.33 2.34 -38.66 1.68 -39 1 C-41.52733235 0.34444881 -41.52733235 0.34444881 -44 0 C-43.01 -0.33 -42.02 -0.66 -41 -1 C-41 -1.66 -41 -2.32 -41 -3 C-27.4055444 -5.62981668 -13.10279263 -4.36759754 0 0 Z " fill="#16AF8D" transform="translate(116,75)"/>
<path d="M0 0 C3.3 0 6.6 0 10 0 C9.67 1.98 9.34 3.96 9 6 C12.50776784 7.60355101 15.14354879 8.22036864 19 8 C18.01 9.98 17.02 11.96 16 14 C17.32 14.66 18.64 15.32 20 16 C20 16.66 20 17.32 20 18 C22.16874252 17.49396008 23.99967627 17.00016187 26 16 C26.125 21.75 26.125 21.75 25 24 C25.99 24.33 26.98 24.66 28 25 C28 25.66 28 26.32 28 27 C24.45791765 26.60643529 22.9168533 25.03734723 20.50512695 22.54907227 C18.82179922 20.81659628 17.09920218 19.12919589 15.37109375 17.44140625 C14.05980442 16.14853021 12.74860831 14.85555962 11.4375 13.5625 C10.77814453 12.91990234 10.11878906 12.27730469 9.43945312 11.61523438 C5.75454597 7.96736146 2.69397106 4.43511266 0 0 Z " fill="#137F68" transform="translate(69,256)"/>
<path d="M0 0 C0.99 0 1.98 0 3 0 C3 0.99 3 1.98 3 3 C3.66 3 4.32 3 5 3 C5 4.65 5 6.3 5 8 C5.763125 8.2475 6.52625 8.495 7.3125 8.75 C10.28095711 10.13067773 11.14597475 11.38750987 13 14 C13.99 14.33 14.98 14.66 16 15 C16.33 15.99 16.66 16.98 17 18 C18.40105576 19.42857119 18.40105576 19.42857119 20.0625 20.6875 C21.031875 21.450625 22.00125 22.21375 23 23 C22.67 23.66 22.34 24.32 22 25 C21.34 24.34 20.68 23.68 20 23 C19.24332031 22.72542969 18.48664063 22.45085937 17.70703125 22.16796875 C14.37455717 20.73014804 12.32192207 18.80204792 9.6875 16.3125 C5.71814242 12.60061427 1.70692572 8.9827833 -2.44140625 5.47265625 C-4 4 -4 4 -6 1 C-4.7934375 1.0309375 -4.7934375 1.0309375 -3.5625 1.0625 C-1.06645115 1.29633621 -1.06645115 1.29633621 0 0 Z " fill="#0F7762" transform="translate(101,282)"/>
<path d="M0 0 C0.66 0 1.32 0 2 0 C1.4250234 3.25337639 0.54800428 4.80187243 -1.87890625 7.0234375 C-2.46679932 7.56701904 -3.05469238 8.11060059 -3.66040039 8.6706543 C-4.28809326 9.23308838 -4.91578613 9.79552246 -5.5625 10.375 C-6.19857178 10.95354736 -6.83464355 11.53209473 -7.48999023 12.12817383 C-14.45919957 18.41014045 -20.64507837 23.92112853 -30 26 C-30 24.35 -30 22.7 -30 21 C-28.68 21.33 -27.36 21.66 -26 22 C-25.67 21.34 -25.34 20.68 -25 20 C-23.5459375 19.566875 -23.5459375 19.566875 -22.0625 19.125 C-18.46365526 17.8029754 -18.5611998 17.22647958 -17 14 C-14.375 13.25 -14.375 13.25 -12 13 C-11.9071875 12.1646875 -11.9071875 12.1646875 -11.8125 11.3125 C-10.64834483 7.99913528 -8.60541556 6.29524704 -6 4 C-5.01 3.67 -4.02 3.34 -3 3 C-2.34 3.33 -1.68 3.66 -1 4 C-0.67 2.68 -0.34 1.36 0 0 Z " fill="#407E50" transform="translate(334,269)"/>
<path d="M0 0 C0.66 0.33 1.32 0.66 2 1 C-0.83084727 4.14538586 -3.10365552 5.47947532 -7 7 C-8.69081492 8.30257455 -10.35458218 9.64053108 -12 11 C-13.66539239 12.3557335 -15.33205859 13.70990376 -17 15.0625 C-18.2375 16.06990234 -18.2375 16.06990234 -19.5 17.09765625 C-22 19 -22 19 -24.44921875 20.359375 C-27.80590043 22.51834331 -30.18600599 25.21033923 -32.8125 28.1875 C-33.31458984 28.74630859 -33.81667969 29.30511719 -34.33398438 29.88085938 C-35.56165889 31.24883954 -36.7816269 32.62372916 -38 34 C-38 31 -38 31 -36.75 29.75 C-36.1725 29.1725 -35.595 28.595 -35 28 C-34.4225 26.88625 -33.845 25.7725 -33.25 24.625 C-31.32513433 21.10227287 -29.04471911 19.26659293 -25.68359375 17.140625 C-23.96230335 16.05286022 -23.96230335 16.05286022 -22.5859375 14.578125 C-17.54456186 9.56158372 -9.27674246 3 -2 3 C-2 2.34 -2 1.68 -2 1 C-1.34 0.67 -0.68 0.34 0 0 Z " fill="#81D161" transform="translate(287,91)"/>
<path d="M0 0 C1.32 0.33 2.64 0.66 4 1 C-0.62 5.95 -5.24 10.9 -10 16 C-11.32 15.67 -12.64 15.34 -14 15 C-14 15.99 -14 16.98 -14 18 C-15.98 18.99 -15.98 18.99 -18 20 C-18 19.01 -18 18.02 -18 17 C-18.66 17 -19.32 17 -20 17 C-20 16.34 -20 15.68 -20 15 C-18.35 15 -16.7 15 -15 15 C-14.95359375 13.63101563 -14.95359375 13.63101563 -14.90625 12.234375 C-14 9 -14 9 -11.09375 6.953125 C-9.9078125 6.39109375 -8.721875 5.8290625 -7.5 5.25 C-2.98179134 3.44338588 -2.98179134 3.44338588 0 0 Z " fill="#67A454" transform="translate(369,234)"/>
<path d="M0 0 C3.24014079 3.24014079 3.9126848 6.81093368 4.24291992 11.30810547 C4.23881104 12.48260254 4.23470215 13.65709961 4.23046875 14.8671875 C4.22853516 16.16527344 4.22660156 17.46335938 4.22460938 18.80078125 C4.21840576 19.47061035 4.21220215 20.14043945 4.20581055 20.83056641 C4.18761255 22.8624335 4.18530094 24.89384125 4.18554688 26.92578125 C4.15681222 33.3687293 4.01765935 39.63352308 3 46 C2.34 46 1.68 46 1 46 C1 47.98 1 49.96 1 52 C0.67 52 0.34 52 0 52 C-0.33 50.02 -0.66 48.04 -1 46 C0.485 45.505 0.485 45.505 2 45 C1.91621094 44.02417969 1.83242188 43.04835937 1.74609375 42.04296875 C1.64425781 40.77066406 1.54242188 39.49835938 1.4375 38.1875 C1.33308594 36.92292969 1.22867187 35.65835938 1.12109375 34.35546875 C1 31 1 31 2 28 C2.36442958 21.26877126 2.22003742 14.47347054 0.4375 7.9375 C-0.16319351 5.2772859 -0.06173087 2.71615848 0 0 Z " fill="#B1E369" transform="translate(401,130)"/>
<path d="M0 0 C0 3 0 3 -1.3125 4.375 C-1.869375 4.91125 -2.42625 5.4475 -3 6 C-3.433125 6.7425 -3.86625 7.485 -4.3125 8.25 C-6.51459007 11.83859122 -9.2296459 14.8422349 -12 18 C-14.78832527 21.28038267 -16.92754981 24.5569726 -18.99609375 28.3046875 C-20.43026484 30.72659511 -22.22328854 32.82209563 -24 35 C-25.0268343 36.6502694 -26.03567924 38.31243867 -27 40 C-28 37 -28 37 -27.1875 34.375 C-26 32 -26 32 -24 31 C-23.690625 30.360625 -23.38125 29.72125 -23.0625 29.0625 C-22 27 -22 27 -19 25 C-17.55577774 22.59514202 -17.55577774 22.59514202 -16.3125 19.875 C-15.65701172 18.50988281 -15.65701172 18.50988281 -14.98828125 17.1171875 C-14.66214844 16.41851562 -14.33601562 15.71984375 -14 15 C-13.34 15 -12.68 15 -12 15 C-12 14.34 -12 13.68 -12 13 C-11.34 13 -10.68 13 -10 13 C-9.75507813 12.43796875 -9.51015625 11.8759375 -9.2578125 11.296875 C-7.77073461 8.58134146 -5.95937218 6.53608562 -3.875 4.25 C-3.15054688 3.45078125 -2.42609375 2.6515625 -1.6796875 1.828125 C-1.12539062 1.22484375 -0.57109375 0.6215625 0 0 Z " fill="#65BF5E" transform="translate(252,117)"/>
<path d="M0 0 C0.33 0 0.66 0 1 0 C1.99 7.59 2.98 15.18 4 23 C4.66 23 5.32 23 6 23 C6 25.97 6 28.94 6 32 C6.66 32 7.32 32 8 32 C7.67 33.32 7.34 34.64 7 36 C7.66 36 8.32 36 9 36 C9.33 37.65 9.66 39.3 10 41 C9.01 41.495 9.01 41.495 8 42 C5.33961901 36.4373852 4.03767051 31.06732052 3 25 C2.67 25 2.34 25 2 25 C0.31557858 19.16420924 -0.26143011 14.05539796 -0.125 8 C-0.11597656 7.22527344 -0.10695313 6.45054687 -0.09765625 5.65234375 C-0.07439388 3.76809157 -0.0385364 1.88400168 0 0 Z " fill="#12966A" transform="translate(127,203)"/>
<path d="M0 0 C0.66 0.66 1.32 1.32 2 2 C1.67 2.99 1.34 3.98 1 5 C0.80112075 6.80924876 0.63790399 8.62258498 0.5 10.4375 C0.24767645 13.74924656 -0.13648506 16.79555004 -1 20 C-2.22258815 27.946823 -2.54256165 35.98022979 -3 44 C-3.33 44 -3.66 44 -4 44 C-4.35357143 10.41071429 -4.35357143 10.41071429 0 0 Z " fill="#27BC76" transform="translate(125,118)"/>
<path d="M0 0 C0.78375 0.04125 1.5675 0.0825 2.375 0.125 C-1.23534503 4.14604565 -5.50165356 6.89475811 -10 9.8125 C-10.7425 10.31072266 -11.485 10.80894531 -12.25 11.32226562 C-16.3692481 14.00414358 -19.59383942 15.78160333 -24.625 16.125 C-25.285 15.135 -25.945 14.145 -26.625 13.125 C-25.635 12.465 -24.645 11.805 -23.625 11.125 C-23.625 11.785 -23.625 12.445 -23.625 13.125 C-22.305 13.125 -20.985 13.125 -19.625 13.125 C-19.295 12.465 -18.965 11.805 -18.625 11.125 C-17.965 11.455 -17.305 11.785 -16.625 12.125 C-16.295 11.135 -15.965 10.145 -15.625 9.125 C-14.635 8.795 -13.645 8.465 -12.625 8.125 C-12.295 7.465 -11.965 6.805 -11.625 6.125 C-9.86817275 5.10284597 -8.10899924 4.08304552 -6.31640625 3.125 C-1.12105503 0.05338357 -1.12105503 0.05338357 0 0 Z " fill="#1E684D" transform="translate(282.625,313.875)"/>
<path d="M0 0 C2.97 0.495 2.97 0.495 6 1 C6 1.66 6 2.32 6 3 C7.32 3.66 8.64 4.32 10 5 C10 5.66 10 6.32 10 7 C12.16874252 6.49396008 13.99967627 6.00016187 16 5 C16.125 10.75 16.125 10.75 15 13 C15.99 13.33 16.98 13.66 18 14 C18 14.66 18 15.32 18 16 C14.54978978 15.61664331 12.89348171 14.15576661 10.5703125 11.671875 C8.50207895 9.4698751 6.34038614 7.36914185 4.1875 5.25 C2.77085032 3.85414942 1.36852543 2.44306385 0 1 C0 0.67 0 0.34 0 0 Z " fill="#11876D" transform="translate(79,267)"/>
<path d="M0 0 C1.33224922 3.71769546 0.6717848 6.4054712 -0.25 10.1875 C-0.67345703 11.93160156 -0.67345703 11.93160156 -1.10546875 13.7109375 C-1.81529498 16.32086626 -2.61166362 18.78668848 -3.5625 21.3125 C-5.91821749 27.90850898 -6.27778991 35.07527971 -7 42 C-7.33 42 -7.66 42 -8 42 C-8.36953427 32.10469357 -7.69960687 23.59563233 -5 14 C-4.82210937 13.30132812 -4.64421875 12.60265625 -4.4609375 11.8828125 C-3.37068824 7.72508226 -1.75546016 3.90988854 0 0 Z " fill="#18C78F" transform="translate(128,101)"/>
<path d="M0 0 C0.9446814 0.04543945 0.9446814 0.04543945 1.90844727 0.09179688 C4.7930527 0.2295754 7.67777228 0.36480693 10.5625 0.5 C12.0484668 0.57154297 12.0484668 0.57154297 13.56445312 0.64453125 C22.9051253 1.43344202 22.9051253 1.43344202 32 0 C33.39439664 -0.06665376 34.79169875 -0.08538199 36.1875 -0.0625 C38.0746875 -0.0315625 38.0746875 -0.0315625 40 0 C29.53778228 5.91450788 15.24684224 4.86927314 4 2 C2.65733981 1.35232275 1.32227232 0.68834449 0 0 Z " fill="#084C42" transform="translate(190,345)"/>
<path d="M0 0 C2.53188326 2.53188326 3.24553109 4.89965012 4.5 8.25 C4.9228125 9.36890625 5.345625 10.4878125 5.78125 11.640625 C6.38453125 13.30351563 6.38453125 13.30351563 7 15 C7.4021875 16.04671875 7.804375 17.0934375 8.21875 18.171875 C9 21 9 21 8 25 C7.34 22.36 6.68 19.72 6 17 C5.34 17 4.68 17 4 17 C3.34 16.34 2.68 15.68 2 15 C1.01 15 0.02 15 -1 15 C-0.83628906 14.45859375 -0.67257812 13.9171875 -0.50390625 13.359375 C0.08590587 10.59777407 0.09609308 8.07181861 0.0625 5.25 C0.05347656 4.26515625 0.04445313 3.2803125 0.03515625 2.265625 C0.02355469 1.51796875 0.01195312 0.7703125 0 0 Z " fill="#90BB56" transform="translate(396,113)"/>
<path d="M0 0 C0.99 0 1.98 0 3 0 C1.69317199 2.88049117 0.29498997 4.9608743 -1.93359375 7.19921875 C-2.50013672 7.76833984 -3.06667969 8.33746094 -3.65039062 8.92382812 C-4.24013672 9.50583984 -4.82988281 10.08785156 -5.4375 10.6875 C-6.02337891 11.28111328 -6.60925781 11.87472656 -7.21289062 12.48632812 C-8.06463867 13.33420898 -8.06463867 13.33420898 -8.93359375 14.19921875 C-9.44978271 14.71315186 -9.96597168 15.22708496 -10.49780273 15.7565918 C-12 17 -12 17 -15 18 C-15 15 -15 15 -13.1875 12.8125 C-11 11 -11 11 -8 11 C-8 9.35 -8 7.7 -8 6 C-5.34771188 4.92474806 -2.71631546 3.90543849 0 3 C0 2.01 0 1.02 0 0 Z " fill="#4C854D" transform="translate(355,249)"/>
<path d="M0 0 C0.33 0 0.66 0 1 0 C1 1.65 1 3.3 1 5 C1.99 5.33 2.98 5.66 4 6 C3.25130208 7.69270833 2.50260417 9.38541667 1.75390625 11.078125 C0.45116037 14.3991145 -0.12790169 17.55471753 -0.31640625 21.109375 C-0.35830078 21.86347656 -0.40019531 22.61757812 -0.44335938 23.39453125 C-0.48267578 24.17183594 -0.52199219 24.94914062 -0.5625 25.75 C-0.60568359 26.54277344 -0.64886719 27.33554688 -0.69335938 28.15234375 C-0.79902991 30.10137815 -0.89997966 32.05066748 -1 34 C-1.33 34 -1.66 34 -2 34 C-2.05906119 30.39590461 -2.09394639 26.79193691 -2.125 23.1875 C-2.14175781 22.18267578 -2.15851562 21.17785156 -2.17578125 20.14257812 C-2.22036024 13.21054456 -1.48266066 6.77059416 0 0 Z " fill="#20D5AA" transform="translate(26,120)"/>
<path d="M0 0 C0.33 0 0.66 0 1 0 C1.33707111 4.83135256 0.53407461 6.96425154 -2 11 C-2.53205985 12.46793949 -3.02945951 13.94869992 -3.5 15.4375 C-4.68821709 19.16389809 -6.04158897 22.59406777 -8 26 C-8.66 26.33 -9.32 26.66 -10 27 C-9.81824219 26.47792969 -9.63648438 25.95585937 -9.44921875 25.41796875 C-7.96104122 21.06027968 -6.64410177 16.71139156 -5.5 12.25 C-4.47609295 8.39687609 -3.33159622 5.28543103 -1 2 C-0.67 1.34 -0.34 0.68 0 0 Z " fill="#379D57" transform="translate(212,173)"/>
<path d="M0 0 C0.66 0 1.32 0 2 0 C1.67 2.64 1.34 5.28 1 8 C0.01 7.67 -0.98 7.34 -2 7 C-2.433125 8.299375 -2.433125 8.299375 -2.875 9.625 C-3.24625 10.73875 -3.6175 11.8525 -4 13 C-4.433125 14.6396875 -4.433125 14.6396875 -4.875 16.3125 C-5.24625 17.199375 -5.6175 18.08625 -6 19 C-7.32 19.33 -8.64 19.66 -10 20 C-9.34 17.36 -8.68 14.72 -8 12 C-7.34 12 -6.68 12 -6 12 C-5.8453125 10.824375 -5.8453125 10.824375 -5.6875 9.625 C-5 7 -5 7 -2 5 C-0.79549696 2.44816596 -0.79549696 2.44816596 0 0 Z " fill="#1CE0B2" transform="translate(38,96)"/>
<path d="M0 0 C4.64698669 0.54792828 8.0213015 1.84272447 12.125 4.0625 C15.94176382 6.12627178 17.58547221 7 22 7 C22 7.66 22 8.32 22 9 C21.01 9 20.02 9 19 9 C18.67 9.66 18.34 10.32 18 11 C11.125 8.25 11.125 8.25 10 6 C7.65613191 5.08968728 7.65613191 5.08968728 4.9375 4.375 C3.55884766 3.98441406 3.55884766 3.98441406 2.15234375 3.5859375 C1.08693359 3.29589844 1.08693359 3.29589844 0 3 C0 2.01 0 1.02 0 0 Z " fill="#1BAB8A" transform="translate(116,76)"/>
<path d="M0 0 C0.61254883 1.78857422 0.61254883 1.78857422 1 4 C-0.34707847 6.53052051 -1.70189158 8.77569148 -3.3125 11.125 C-3.72951172 11.75792969 -4.14652344 12.39085937 -4.57617188 13.04296875 C-6.24660831 15.55261967 -7.86368866 17.86368866 -10 20 C-11.0122633 13.58899911 -7.59842984 9.00148735 -4 4 C-2.69703777 2.63697213 -1.37153046 1.29400918 0 0 Z " fill="#3FA85B" transform="translate(223,157)"/>
<path d="M0 0 C6.61085476 0.48969295 11.94977014 2.33442742 18 5 C18 5.66 18 6.32 18 7 C18.66 7 19.32 7 20 7 C20 7.66 20 8.32 20 9 C18.88625 8.67 17.7725 8.34 16.625 8 C13.30540283 6.911357 13.30540283 6.911357 11 7 C11 6.34 11 5.68 11 5 C9.948125 4.8453125 9.948125 4.8453125 8.875 4.6875 C5.60862353 3.90640997 2.9528148 2.57941257 0 1 C0 0.67 0 0.34 0 0 Z " fill="#BEEC6C" transform="translate(352,80)"/>
<path d="M0 0 C0.66 0.33 1.32 0.66 2 1 C-7.22551253 12.70615034 -7.22551253 12.70615034 -13 17 C-9.84242335 10.41547998 -6.14099843 4.15420482 0 0 Z " fill="#73C960" transform="translate(261,108)"/>
<path d="M0 0 C2 2 2 2 3 5 C3.66 5.33 4.32 5.66 5 6 C5.59355614 8.64860427 5.74209269 11.29197322 6 14 C6.66 14 7.32 14 8 14 C8.33 16.64 8.66 19.28 9 22 C6.03917829 18.52347961 4.4550407 14.64321532 2.8125 10.4375 C2.53986328 9.76525391 2.26722656 9.09300781 1.98632812 8.40039062 C0.81862715 5.45333577 0 3.19843856 0 0 Z " fill="#168E76" transform="translate(30,190)"/>
<path d="M0 0 C0.33 0.66 0.66 1.32 1 2 C3.52733235 2.65555119 3.52733235 2.65555119 6 3 C3.20058024 5.12985467 0.35510301 7.16018444 -2.5625 9.125 C-3.32691406 9.64320312 -4.09132813 10.16140625 -4.87890625 10.6953125 C-7 12 -7 12 -10 13 C-10 12.34 -10 11.68 -10 11 C-9.34 11 -8.68 11 -8 11 C-8 10.34 -8 9.68 -8 9 C-4.53846154 6 -4.53846154 6 -2 6 C-2 5.34 -2 4.68 -2 4 C-1.34 4 -0.68 4 0 4 C0 2.68 0 1.36 0 0 Z " fill="#54CF63" transform="translate(276,91)"/>
<path d="M0 0 C0.33 0.66 0.66 1.32 1 2 C-0.21574224 3.63506773 -1.44819513 5.2577186 -2.6875 6.875 C-3.37199219 7.77992187 -4.05648437 8.68484375 -4.76171875 9.6171875 C-7.09918116 12.10558552 -8.77089231 13.01599871 -12 14 C-10.57910701 10.84717276 -8.84968149 8.46222036 -6.5625 5.875 C-5.96566406 5.19179688 -5.36882812 4.50859375 -4.75390625 3.8046875 C-3 2 -3 2 0 0 Z " fill="#3DA261" transform="translate(161,52)"/>
<path d="M0 0 C3.94798611 0.41557749 7.19777169 1.44358032 10.8125 3 C14.29406777 4.46647854 17.29779653 5.30128346 21.0625 5.625 C22.361875 5.74875 23.66125 5.8725 25 6 C25.33 6.66 25.66 7.32 26 8 C24.06183265 7.8858134 22.12444901 7.75826577 20.1875 7.625 C19.10855469 7.55539062 18.02960938 7.48578125 16.91796875 7.4140625 C14 7 14 7 11 5 C8.70577466 4.18209435 6.38989767 3.48561769 4.05859375 2.78125 C2 2 2 2 0 0 Z " fill="#0F6453" transform="translate(176,338)"/>
<path d="M0 0 C0.66 0.33 1.32 0.66 2 1 C-1 3 -1 3 -4 3 C-4 3.66 -4 4.32 -4 5 C-4.66 5 -5.32 5 -6 5 C-6.226875 5.639375 -6.45375 6.27875 -6.6875 6.9375 C-8 9 -8 9 -10.625 9.75 C-11.40875 9.8325 -12.1925 9.915 -13 10 C-12.87109375 8.20703125 -12.87109375 8.20703125 -12 6 C-9.34765625 4.26171875 -9.34765625 4.26171875 -6.0625 2.6875 C-4.98097656 2.15511719 -3.89945313 1.62273438 -2.78515625 1.07421875 C-1.86605469 0.71972656 -0.94695312 0.36523438 0 0 Z " fill="#47BA6B" transform="translate(182,39)"/>
<path d="M0 0 C-1 2 -1 2 -3.43359375 3 C-4.42488281 3.33 -5.41617187 3.66 -6.4375 4 C-10.62213295 5.33336865 -10.62213295 5.33336865 -14 8 C-16.625 8.125 -16.625 8.125 -19 8 C-19 7.34 -19 6.68 -19 6 C-16.77542155 4.98855432 -14.54625709 3.99079735 -12.3125 3 C-11.68666016 2.71382813 -11.06082031 2.42765625 -10.41601562 2.1328125 C-6.80007233 0.54255472 -3.95809151 -0.36326652 0 0 Z " fill="#ABDD6D" transform="translate(309,83)"/>
<path d="M0 0 C0.66 0 1.32 0 2 0 C1.58411954 6.19518473 0.39748106 11.26689311 -2 17 C-2.33 17 -2.66 17 -3 17 C-3.05399736 15.54207116 -3.09279177 14.08357288 -3.125 12.625 C-3.15980469 11.40683594 -3.15980469 11.40683594 -3.1953125 10.1640625 C-3 8 -3 8 -1 6 C-0.60235737 4.01178687 -0.26224651 2.01055661 0 0 Z " fill="#77A456" transform="translate(402,176)"/>
<path d="M0 0 C0 0.66 0 1.32 0 2 C-0.66 2 -1.32 2 -2 2 C-2.33 2.99 -2.66 3.98 -3 5 C-4.48828125 6.24609375 -4.48828125 6.24609375 -6.3125 7.4375 C-9.190742 9.39186185 -11.62571905 11.43577658 -14 14 C-12.53772206 8.63831423 -6.08760693 0 0 0 Z " fill="#4AC861" transform="translate(266,103)"/>
<path d="M0 0 C6.67491831 -0.45510807 12.59374557 1.2327574 19 3 C19 3.66 19 4.32 19 5 C12.09232563 4.63176001 6.3618858 3.76081837 0 1 C0 0.67 0 0.34 0 0 Z " fill="#23CFA8" transform="translate(97,73)"/>
<path d="M0 0 C1.32 0 2.64 0 4 0 C5 3 5 3 5 5 C5.32033957 7.00212229 5.65259077 9.00239695 6 11 C6.99 11.33 7.98 11.66 9 12 C8.67 13.32 8.34 14.64 8 16 C7.67 15.01 7.34 14.02 7 13 C6.34 12.67 5.68 12.34 5 12 C5 10.68 5 9.36 5 8 C4.34 8 3.68 8 3 8 C2.67 6.68 2.34 5.36 2 4 C1.34 4 0.68 4 0 4 C0 2.68 0 1.36 0 0 Z " fill="#14B891" transform="translate(39,208)"/>
<path d="M0 0 C0.66 1.32 1.32 2.64 2 4 C1.01 4 0.02 4 -1 4 C-1.4021875 5.2065625 -1.4021875 5.2065625 -1.8125 6.4375 C-2.204375 7.283125 -2.59625 8.12875 -3 9 C-3.99 9.33 -4.98 9.66 -6 10 C-6.33 11.65 -6.66 13.3 -7 15 C-7.66 15 -8.32 15 -9 15 C-7.58399311 8.86397012 -3.9336625 4.73301638 0 0 Z " fill="#1BA186" transform="translate(39,93)"/>
<path d="M0 0 C0.66 0.33 1.32 0.66 2 1 C-0.81626937 4.12918819 -3.05966271 5.59273668 -7 7 C-8.051875 7.556875 -9.10375 8.11375 -10.1875 8.6875 C-11.115625 9.120625 -12.04375 9.55375 -13 10 C-13.66 9.67 -14.32 9.34 -15 9 C-6.738041 3.44419134 -6.738041 3.44419134 -2 3 C-2 2.34 -2 1.68 -2 1 C-1.34 0.67 -0.68 0.34 0 0 Z " fill="#8FD766" transform="translate(287,91)"/>
<path d="M0 0 C0.85573613 2.38346137 1.22877115 3.50485148 0.14453125 5.8515625 C-4.29774731 11.76591577 -4.29774731 11.76591577 -8 13 C-6.40956621 7.91061189 -3.2553049 4.12543357 0 0 Z " fill="#40A865" transform="translate(148,66)"/>
<path d="M0 0 C0.66 0 1.32 0 2 0 C2.33 1.32 2.66 2.64 3 4 C3.66 4 4.32 4 5 4 C5 5.32 5 6.64 5 8 C5.99 8.33 6.98 8.66 8 9 C8.33 11.31 8.66 13.62 9 16 C4.65692245 11.335213 2.47173424 5.78426332 0 0 Z " fill="#1D8F77" transform="translate(39,212)"/>
<path d="M0 0 C-0.99 0 -1.98 0 -3 0 C-3.33 0.99 -3.66 1.98 -4 3 C-8.02040985 3.69584017 -11.08263419 4.1700097 -15 3 C-13.25531628 2.29911844 -11.50398839 1.61475991 -9.75 0.9375 C-8.77546875 0.55464844 -7.8009375 0.17179687 -6.796875 -0.22265625 C-3.95992605 -1.01113787 -2.70590448 -1.02437812 0 0 Z " fill="#1CA88A" transform="translate(75,74)"/>
<path d="M0 0 C0.66 0.33 1.32 0.66 2 1 C0.79618552 3.49361571 -0.45428722 5.68143083 -2 8 C-4.625 8.1875 -4.625 8.1875 -7 8 C-7 7.34 -7 6.68 -7 6 C-6.01 6 -5.02 6 -4 6 C-3.71125 5.38125 -3.4225 4.7625 -3.125 4.125 C-2 2 -2 2 0 0 Z " fill="#73A960" transform="translate(376,226)"/>
<path d="M0 0 C1.1171875 3.71875 1.1171875 3.71875 0.0625 6.25 C-0.4634375 7.11625 -0.4634375 7.11625 -1 8 C-0.34 8 0.32 8 1 8 C-0.24976756 11.65316671 -0.67098753 12.78065836 -4 15 C-3.43179252 9.54520815 -2.05362055 5.08940744 0 0 Z " fill="#17A085" transform="translate(29,108)"/>
<path d="M0 0 C2.64 1.65 5.28 3.3 8 5 C7.67 6.32 7.34 7.64 7 9 C6.01 8.34 5.02 7.68 4 7 C3.34 6.67 2.68 6.34 2 6 C2.33 5.34 2.66 4.68 3 4 C2.01 4.33 1.02 4.66 0 5 C0 3.35 0 1.7 0 0 Z " fill="#4BD073" transform="translate(264,71)"/>
<path d="M0 0 C0.66 0 1.32 0 2 0 C1.39228375 3.40321099 0.12178918 5.30695989 -2 8 C-3.01656081 9.65661761 -4.02065076 11.32111559 -5 13 C-6 10 -6 10 -5.1875 7.375 C-4 5 -4 5 -2 4 C-0.86649466 1.98330173 -0.86649466 1.98330173 0 0 Z " fill="#56B25B" transform="translate(230,144)"/>
<path d="M0 0 C1.98 0.66 3.96 1.32 6 2 C6 2.99 6 3.98 6 5 C7.32 5.33 8.64 5.66 10 6 C10 6.66 10 7.32 10 8 C6.59687262 6.94124926 3.98646769 5.99097846 1 4 C0.3125 1.875 0.3125 1.875 0 0 Z " fill="#4FC771" transform="translate(232,42)"/>
<path d="M0 0 C0.66 0 1.32 0 2 0 C1.44449305 3.59905908 0.25112752 4.99909799 -2.5625 7.25 C-3.20316406 7.77078125 -3.84382813 8.2915625 -4.50390625 8.828125 C-4.99761719 9.21484375 -5.49132812 9.6015625 -6 10 C-5.34 7.69 -4.68 5.38 -4 3 C-3.01 3.33 -2.02 3.66 -1 4 C-0.67 2.68 -0.34 1.36 0 0 Z " fill="#417B4A" transform="translate(334,269)"/>
<path d="M0 0 C0 0.66 0 1.32 0 2 C-8.38709677 5.70967742 -8.38709677 5.70967742 -11 6 C-11.66 5.34 -12.32 4.68 -13 4 C-11.35 4 -9.7 4 -8 4 C-8 3.01 -8 2.02 -8 1 C-5.10765685 0.17361624 -3.11257569 0 0 0 Z " fill="#8BB759" transform="translate(320,78)"/>
<path d="M0 0 C2.97 0 5.94 0 9 0 C7.515 1.98 7.515 1.98 6 4 C3.03 3.505 3.03 3.505 0 3 C0 2.01 0 1.02 0 0 Z " fill="#0F9C7A" transform="translate(79,264)"/>
<path d="M0 0 C0.33 0.66 0.66 1.32 1 2 C0.00390625 4.3828125 0.00390625 4.3828125 -1.4375 7.125 C-1.91058594 8.03507813 -2.38367188 8.94515625 -2.87109375 9.8828125 C-3.24363281 10.58148438 -3.61617188 11.28015625 -4 12 C-4.33 12 -4.66 12 -5 12 C-4.67 9.03 -4.34 6.06 -4 3 C-3.01 3 -2.02 3 -1 3 C-0.67 2.01 -0.34 1.02 0 0 Z " fill="#6E9D54" transform="translate(398,194)"/>
<path d="M0 0 C1.65 1.65 3.3 3.3 5 5 C3.02 5.99 3.02 5.99 1 7 C-0.32 5.35 -1.64 3.7 -3 2 C-2.01 1.34 -1.02 0.68 0 0 Z " fill="#53DF7A" transform="translate(256,60)"/>
<path d="M0 0 C0.556875 0.28875 1.11375 0.5775 1.6875 0.875 C3.99433186 2.06645793 3.99433186 2.06645793 6.5625 2.8125 C9.63152998 4.30766845 10.49833271 5.99666542 12 9 C8.98472262 7.59422879 6.4052059 5.93873852 3.75 3.9375 C3.04359375 3.41027344 2.3371875 2.88304687 1.609375 2.33984375 C1.07828125 1.89769531 0.5471875 1.45554687 0 1 C0 0.67 0 0.34 0 0 Z " fill="#0C6752" transform="translate(119,304)"/>
<path d="M0 0 C0.99 0 1.98 0 3 0 C3 0.99 3 1.98 3 3 C0.36095629 4.41377341 -2.07120629 5.37240135 -5 6 C-5 4.35 -5 2.7 -5 1 C-3.68 1.33 -2.36 1.66 -1 2 C-0.67 1.34 -0.34 0.68 0 0 Z " fill="#419157" transform="translate(309,289)"/>
<path d="M0 0 C0 1.98 0 3.96 0 6 C-1.65 6.33 -3.3 6.66 -5 7 C-5 5.68 -5 4.36 -5 3 C-1.67857143 0 -1.67857143 0 0 0 Z " fill="#84BD60" transform="translate(385,214)"/>
<path d="M0 0 C-0.50603992 2.16874252 -0.99983813 3.99967627 -2 6 C-2.66 6 -3.32 6 -4 6 C-4 5.01 -4 4.02 -4 3 C-4.66 3 -5.32 3 -6 3 C-6 2.34 -6 1.68 -6 1 C-4 0 -4 0 0 0 Z " fill="#09A37D" transform="translate(79,256)"/>
<path d="M0 0 C0.33 0.66 0.66 1.32 1 2 C1.66 2 2.32 2 3 2 C4.17571451 5.67410785 4.07366746 9.16929183 4 13 C1.99706653 9.99559979 1.50728374 8.29006055 0.875 4.8125 C0.70742188 3.91144531 0.53984375 3.01039063 0.3671875 2.08203125 C0.24601562 1.39496094 0.12484375 0.70789063 0 0 Z " fill="#138F75" transform="translate(26,177)"/>
<path d="M0 0 C0.99 0.495 0.99 0.495 2 1 C2.33333333 2.66666667 2.66666667 4.33333333 3 6 C3.66 6.33 4.32 6.66 5 7 C4.67 7.66 4.34 8.32 4 9 C3.34 9 2.68 9 2 9 C2 8.34 2 7.68 2 7 C1.34 7 0.68 7 0 7 C0 4.69 0 2.38 0 0 Z " fill="#1BAD8D" transform="translate(25,170)"/>
<path d="M0 0 C1.11375 0.598125 2.2275 1.19625 3.375 1.8125 C4.00148438 2.14894531 4.62796875 2.48539062 5.2734375 2.83203125 C7 4 7 4 9 7 C6.69 6.67 4.38 6.34 2 6 C2 4.68 2 3.36 2 2 C1.34 2 0.68 2 0 2 C0 1.34 0 0.68 0 0 Z " fill="#81A44E" transform="translate(370,85)"/>
<path d="M0 0 C0.33 0.66 0.66 1.32 1 2 C0.06553465 4.03144641 -0.93224776 6.03533587 -2 8 C-3.32 8 -4.64 8 -6 8 C-6 6 -6 6 -3.5625 3.4375 C-2.716875 2.633125 -1.87125 1.82875 -1 1 C-0.67 0.67 -0.34 0.34 0 0 Z " fill="#4F9758" transform="translate(329,272)"/>
<path d="M0 0 C0.99 0 1.98 0 3 0 C3 0.99 3 1.98 3 3 C3.66 3 4.32 3 5 3 C5 3.66 5 4.32 5 5 C3.35 5 1.7 5 0 5 C-0.5625 3.0625 -0.5625 3.0625 -1 1 C-0.67 0.67 -0.34 0.34 0 0 Z " fill="#069170" transform="translate(101,282)"/>
<path d="M0 0 C-1.45255699 3.82946843 -3.42895561 5.12050295 -7 7 C-7 4 -7 4 -5.1875 1.8125 C-3 0 -3 0 0 0 Z " fill="#407F47" transform="translate(347,260)"/>
<path d="M0 0 C1.32 0 2.64 0 4 0 C4.33 2.31 4.66 4.62 5 7 C4.01 6.67 3.02 6.34 2 6 C2 5.34 2 4.68 2 4 C1.34 4 0.68 4 0 4 C0 2.68 0 1.36 0 0 Z " fill="#14B18C" transform="translate(48,224)"/>
<path d="M0 0 C0.99 0.33 1.98 0.66 3 1 C-0.465 3.97 -0.465 3.97 -4 7 C-4.33 6.01 -4.66 5.02 -5 4 C-2.6875 1.9375 -2.6875 1.9375 0 0 Z " fill="#367449" transform="translate(309,292)"/>
<path d="M0 0 C3 1 3 1 4 2 C4.04063832 3.66617115 4.042721 5.33388095 4 7 C3.01 6.67 2.02 6.34 1 6 C0.67 4.02 0.34 2.04 0 0 Z " fill="#13AB85" transform="translate(60,240)"/>
<path d="M0 0 C2 0 2 0 4.0625 1.625 C6.36129314 4.44287547 6.67506385 6.4257023 7 10 C3.66442368 7.0094833 1.84916079 4.06815373 0 0 Z " fill="#16876D" transform="translate(48,228)"/>
<path d="M0 0 C0.66 0 1.32 0 2 0 C2 2.31 2 4.62 2 7 C0.68 7.33 -0.64 7.66 -2 8 C-1.34 5.36 -0.68 2.72 0 0 Z " fill="#24D6AB" transform="translate(30,108)"/>
<path d="M0 0 C2.79872437 2.52788007 4.45773019 4.20411134 5 8 C2.525 7.01 2.525 7.01 0 6 C0 4.02 0 2.04 0 0 Z " fill="#3CA563" transform="translate(272,78)"/>
<path d="M0 0 C-0.3125 1.875 -0.3125 1.875 -1 4 C-1.99 4.66 -2.98 5.32 -4 6 C-4 5.34 -4 4.68 -4 4 C-4.99 3.67 -5.98 3.34 -7 3 C-2.25 0 -2.25 0 0 0 Z " fill="#549057" transform="translate(340,265)"/>
<path d="M0 0 C0.66 0 1.32 0 2 0 C1.67 1.32 1.34 2.64 1 4 C1.66 4 2.32 4 3 4 C3.33 5.65 3.66 7.3 4 9 C3.01 9.495 3.01 9.495 2 10 C0.39644899 6.49223216 -0.22036864 3.85645121 0 0 Z " fill="#0B8960" transform="translate(133,235)"/>
<path d="M0 0 C0.66 0.66 1.32 1.32 2 2 C1.01 4.97 0.02 7.94 -1 11 C-1.33 11 -1.66 11 -2 11 C-2.19622241 6.78121808 -1.80230168 3.82989106 0 0 Z " fill="#31C979" transform="translate(128,107)"/>
<path d="M0 0 C2.97 0.495 2.97 0.495 6 1 C6 2.32 6 3.64 6 5 C5.01 5 4.02 5 3 5 C3 4.01 3 3.02 3 2 C2.01 2 1.02 2 0 2 C0 1.34 0 0.68 0 0 Z " fill="#C2F065" transform="translate(373,91)"/>
<path d="M0 0 C2.475 0.99 2.475 0.99 5 2 C4.1654738 4.50357861 3.20628008 6.66785852 2 9 C2 7.02 2 5.04 2 3 C1.34 2.67 0.68 2.34 0 2 C0 1.34 0 0.68 0 0 Z " fill="#4BD573" transform="translate(272,84)"/>
<path d="M0 0 C0.33 0.66 0.66 1.32 1 2 C2.32 2 3.64 2 5 2 C5 2.66 5 3.32 5 4 C3.35 4.33 1.7 4.66 0 5 C-0.66 4.01 -1.32 3.02 -2 2 C-1.34 1.34 -0.68 0.68 0 0 Z " fill="#19704F" transform="translate(258,325)"/>
<path d="M0 0 C0.75 1.625 0.75 1.625 1 4 C-0.9375 7.25 -0.9375 7.25 -3 10 C-3.33 9.34 -3.66 8.68 -4 8 C-2.98446183 4.9533855 -1.79237442 2.68856164 0 0 Z " fill="#53AB5A" transform="translate(223,157)"/>
<path d="M0 0 C0.66 0.33 1.32 0.66 2 1 C1.55090939 2.48199902 1.09043436 3.96055236 0.625 5.4375 C0.36976563 6.26121094 0.11453125 7.08492188 -0.1484375 7.93359375 C-1 10 -1 10 -3 11 C-2.69078116 9.54096742 -2.37751201 8.08279278 -2.0625 6.625 C-1.88847656 5.81289062 -1.71445313 5.00078125 -1.53515625 4.1640625 C-1 2 -1 2 0 0 Z " fill="#3AD57B" transform="translate(136,86)"/>
<path d="M0 0 C2.5 2.3125 2.5 2.3125 5 5 C5 5.99 5 6.98 5 8 C2.5 6.25 2.5 6.25 0 4 C0 2.68 0 1.36 0 0 Z " fill="#38A05E" transform="translate(264,67)"/>
<path d="M0 0 C0.33 0.66 0.66 1.32 1 2 C-0.65 3.98 -2.3 5.96 -4 8 C-4.33 7.34 -4.66 6.68 -5 6 C-3.78741495 2.76643985 -2.98715542 1.99143695 0 0 Z " fill="#48B06B" transform="translate(161,52)"/>
<path d="M0 0 C2 1.75 2 1.75 4 4 C4 5.32 4 6.64 4 8 C3.01 7.67 2.02 7.34 1 7 C1.33 5.68 1.66 4.36 2 3 C1.34 3 0.68 3 0 3 C0 2.01 0 1.02 0 0 Z " fill="#C1F068" transform="translate(393,113)"/>
<path d="M0 0 C-0.99 1.485 -0.99 1.485 -2 3 C-4.625 3.1875 -4.625 3.1875 -7 3 C-7 2.34 -7 1.68 -7 1 C-3.375 -1.125 -3.375 -1.125 0 0 Z " fill="#A1D36B" transform="translate(297,88)"/>
</svg>
